<?xml version="1.0" encoding="UTF-8"?>
<svg version="1.1" xmlns="http://www.w3.org/2000/svg" width="2048" height="2048" viewBox="0 0 2048 2048">
<path d="M0 0 C675.84 0 1351.68 0 2048 0 C2048 675.84 2048 1351.68 2048 2048 C1372.16 2048 696.32 2048 0 2048 C0 1372.16 0 696.32 0 0 Z " fill="#F6F7F6" transform="translate(0,0)"/>
<path d="M0 0 C675.84 0 1351.68 0 2048 0 C2048 168.96 2048 337.92 2048 512 C1372.16 512 696.32 512 0 512 C0 343.04 0 174.08 0 0 Z " fill="#9C938A" transform="translate(0,1536)"/>
<path d="M0 0 C1.32 0 2.64 0 4 0 C4.19335938 0.69867187 4.38671875 1.39734375 4.5859375 2.1171875 C4.97652344 3.48230469 4.97652344 3.48230469 5.375 4.875 C5.63023438 5.77992187 5.88546875 6.68484375 6.1484375 7.6171875 C6.8604315 10.14569726 6.8604315 10.14569726 9 12 C9 13.32 9 14.64 9 16 C9.66 16 10.32 16 11 16 C11.25652344 16.61746094 11.51304688 17.23492188 11.77734375 17.87109375 C16.30370809 27.88396033 22.83317853 34.74842011 33 39 C33 39.66 33 40.32 33 41 C33.94875 41.0825 34.8975 41.165 35.875 41.25 C40.88977467 41.93991766 45.38454926 44.00337644 50 46 C50 47.32 50 48.64 50 50 C48.95199219 50.29003906 48.95199219 50.29003906 47.8828125 50.5859375 C46.51769531 50.97652344 46.51769531 50.97652344 45.125 51.375 C44.22007813 51.63023438 43.31515625 51.88546875 42.3828125 52.1484375 C39.85430274 52.8604315 39.85430274 52.8604315 38 55 C36 55.66666667 34 56.33333333 32 57 C30.32665961 57.98879205 28.65848177 58.98648336 27 60 C26.34 60 25.68 60 25 60 C24.67 60.99 24.34 61.98 24 63 C22.50635437 64.23388117 21.01029087 65.46534371 19.48828125 66.6640625 C17.46977649 68.47594867 16.35744635 70.67294911 15 73 C14.01 73.33 13.02 73.66 12 74 C11.0837631 76.30163967 11.0837631 76.30163967 10.5 79 C9.84375 81.75 9.84375 81.75 9 84 C8.01 84.33 7.02 84.66 6 85 C5.855625 86.258125 5.71125 87.51625 5.5625 88.8125 C5.26251314 91.42667123 4.84186703 93.47439892 4 96 C2.68 96 1.36 96 0 96 C-0.268125 94.948125 -0.53625 93.89625 -0.8125 92.8125 C-1.88289638 89.37596425 -3.13691851 87.02750743 -5 84 C-5.28875 83.05125 -5.5775 82.1025 -5.875 81.125 C-7.72884491 75.97543079 -10.4385525 72.040965 -15 69 C-15 68.34 -15 67.68 -15 67 C-15.804375 66.690625 -15.804375 66.690625 -16.625 66.375 C-18.85866598 65.08182496 -20.17044547 63.90261105 -21.9375 62.0625 C-25.77964908 58.09485359 -29.84817942 55.91695649 -35 54 C-35.65613281 53.75121094 -36.31226563 53.50242187 -36.98828125 53.24609375 C-39.97953344 52.1141208 -42.96532565 51.01155812 -46 50 C-46 48.68 -46 47.36 -46 46 C-42.74600096 43.9662506 -39.73256358 43.73698425 -35.96875 43.34375 C-33.17762139 42.85641008 -31.23917928 41.69634794 -29 40 C-28.67 39.34 -28.34 38.68 -28 38 C-26.34151823 36.98648336 -24.67334039 35.98879205 -23 35 C-19.99776138 32.76577591 -18.08821539 31.13232309 -16 28 C-15.34 28 -14.68 28 -14 28 C-13.731875 27.401875 -13.46375 26.80375 -13.1875 26.1875 C-12 24 -12 24 -10.625 22.6875 C-6.63881532 18.54800053 -4.65311298 13.40016908 -3 8 C-2.02381118 5.32397991 -1.01026852 2.66343518 0 0 Z " fill="#B8B2AC" transform="translate(1806,1760)"/>
<path d="M0 0 C0.33 0 0.66 0 1 0 C1.2955593 7.78853501 0.40915771 15.13942997 -0.875 22.8125 C-1.04902344 23.91787109 -1.22304687 25.02324219 -1.40234375 26.16210938 C-2.20000469 31.05147548 -3.01842701 35.43491623 -5 40 C-5.33 40 -5.66 40 -6 40 C-5.34828287 29.36672052 -4.3786734 19.1360202 -1 9 C-0.55843969 6.00830483 -0.25442551 3.01293365 0 0 Z " fill="#E7E8E8" transform="translate(1521,938)"/>
<path d="M0 0 C0.33 0.99 0.66 1.98 1 3 C-0.28716827 4.70257258 -1.63037972 6.36302234 -3 8 C-4.82583777 11.30732895 -6.52010803 14.66494186 -8.21875 18.0390625 C-9.92443974 20.87439764 -11.22125856 22.2815678 -14 24 C-12.29863895 19.32815451 -9.97387664 15.08190763 -7.5625 10.75 C-7.16740234 10.0178125 -6.77230469 9.285625 -6.36523438 8.53125 C-5.97787109 7.83515625 -5.59050781 7.1390625 -5.19140625 6.421875 C-4.84279541 5.78862305 -4.49418457 5.15537109 -4.13500977 4.50292969 C-3 3 -3 3 0 2 C0 1.34 0 0.68 0 0 Z M-15 24 C-15 24.99 -15 25.98 -15 27 C-15.66 26.67 -16.32 26.34 -17 26 C-16.34 25.34 -15.68 24.68 -15 24 Z " fill="#EBECEB" transform="translate(1197,1061)"/>
<path d="M0 0 C0.66 0.33 1.32 0.66 2 1 C1.61328125 1.75023437 1.2265625 2.50046875 0.828125 3.2734375 C-2.1385355 9.10395343 -4.8567112 14.86962338 -7.04296875 21.0390625 C-8 23 -8 23 -11 25 C-8.94235079 18.54646385 -6.57616518 12.2638737 -4 6 C-3.34 6 -2.68 6 -2 6 C-1.855625 5.195625 -1.71125 4.39125 -1.5625 3.5625 C-1 1 -1 1 0 0 Z " fill="#E5E5E6" transform="translate(1493,983)"/>
<path d="M0 0 C2.0625 0.4375 2.0625 0.4375 4 1 C2.9171875 1.7734375 2.9171875 1.7734375 1.8125 2.5625 C-0.52176546 4.58553007 -1.78413686 6.00385111 -3.4375 8.5 C-5.83131041 12.04497402 -8.31955123 13.8602042 -12 16 C-10.37921571 12.27131047 -8.02767716 9.42653322 -5.4375 6.3125 C-4.63183594 5.33925781 -3.82617188 4.36601563 -2.99609375 3.36328125 C-1 1 -1 1 0 0 Z " fill="#E9EAEB" transform="translate(1243,1017)"/>
<path d="M0 0 C0.66 0.33 1.32 0.66 2 1 C0.16080754 7.13064153 -2.454614 12.68192101 -6 18 C-6.66 18 -7.32 18 -8 18 C-8 17.01 -8 16.02 -8 15 C-7.34 15 -6.68 15 -6 15 C-5.88785156 14.45859375 -5.77570313 13.9171875 -5.66015625 13.359375 C-4.86002037 10.49971779 -3.6876185 7.94256292 -2.4375 5.25 C-1.98246094 4.26515625 -1.52742188 3.2803125 -1.05859375 2.265625 C-0.70925781 1.51796875 -0.35992188 0.7703125 0 0 Z " fill="#E9EBEA" transform="translate(1209,1036)"/>
<path d="M0 0 C0 3 0 3 -2.1875 5.48046875 C-3.115625 6.37378906 -4.04375 7.26710938 -5 8.1875 C-5.928125 9.08855469 -6.85625 9.98960938 -7.8125 10.91796875 C-8.534375 11.60503906 -9.25625 12.29210938 -10 13 C-10.33 12.01 -10.66 11.02 -11 10 C-10.54109375 9.61328125 -10.0821875 9.2265625 -9.609375 8.828125 C-6.274919 5.99804049 -3.03498697 3.15638645 0 0 Z " fill="#A59D96" transform="translate(1834,1818)"/>
<path d="M0 0 C0 3.78374009 -1.10336895 5.74863249 -3 9 C-5.1875 10.875 -5.1875 10.875 -7 12 C-6.38801624 8.56049636 -5.07941153 6.48435515 -2.9375 3.75 C-2.38964844 3.04359375 -1.84179688 2.3371875 -1.27734375 1.609375 C-0.85582031 1.07828125 -0.43429687 0.5471875 0 0 Z M-8 12 C-8 15 -8 15 -8 15 Z " fill="#E9EAEB" transform="translate(1590,993)"/>
<path d="M0 0 C1.69433918 3.0469629 2.49467112 5.82821466 3.125 9.25 C3.29257813 10.14203125 3.46015625 11.0340625 3.6328125 11.953125 C3.75398438 12.62859375 3.87515625 13.3040625 4 14 C3.34 14 2.68 14 2 14 C-0.24281523 8.79666866 -1.55577239 5.65735415 0 0 Z " fill="#E4E5E7" transform="translate(1360,985)"/>
<path d="M0 0 C0.33 0 0.66 0 1 0 C0.5547115 5.27315333 -0.08373163 10.01770224 -2 15 C-2.33 15 -2.66 15 -3 15 C-3.36263859 9.1977825 -2.25684543 5.36000789 0 0 Z " fill="#E5E6E6" transform="translate(1514,978)"/>
</svg>
